# xmcd
#
# Track frame offsets:
#	150
#	3507
#	14800
#	27447
#	41532
#	55847
#	63517
#	75457
#	88157
#	99952
#	114230
#	133880
#	154005
#	167595
#	178305
#	190510
#	211300
#	222227
#	231192
#	242082
#	256787
#	267077
#	280140
#	292857
#	303822
#
# Disc length: 4202 seconds
#
# Revision: 1
# Processed by: cddbd v1.5.2PL0 Copyright (c) Steve Scherf et al.
# Submitted via: audiograbber 1.83.01
#
DISCID=52106819
DTITLE=The Bluegrass Cardinals - On Stage In Nashville and New and Old Favorites
DYEAR=1900
DGENRE=Bluegrass
TTITLE0=Live Intro
TTITLE1=Big Mon
TTITLE2=A Friend In California
TTITLE3=Close By
TTITLE4=Sweethearts Again
TTITLE5=Band Introductions
TTITLE6=Love and Wealth
TTITLE7=True Life Blues
TTITLE8=I Want To Go To Heaven
TTITLE9=Virginia Darlin'
TTITLE10=Sunny Side Of The Mountain
TTITLE11=Wake Up
TTITLE12=Back Away
TTITLE13=White House Blues
TTITLE14=The Girl I Love Don't Pay Me No Mind
TTITLE15=Is The Blue Moon Still Shining
TTITLE16=Tell Me That You Love Me
TTITLE17=I Mean To Go To Heaven
TTITLE18=Lost John
TTITLE19=Cold Wind
TTITLE20=Don't Call Me, I'll Call You
TTITLE21=No Letter In The Mail
TTITLE22=Two Different Worlds
TTITLE23=When He Blessed My Soul
TTITLE24=Never Again
EXTD=
EXTT0=
EXTT1=
EXTT2=
EXTT3=
EXTT4=
EXTT5=
EXTT6=
EXTT7=
EXTT8=
EXTT9=
EXTT10=
EXTT11=
EXTT12=
EXTT13=
EXTT14=
EXTT15=
EXTT16=
EXTT17=
EXTT18=
EXTT19=
EXTT20=
EXTT21=
EXTT22=
EXTT23=
EXTT24=
PLAYORDER=
